<svg width="25" height="24" viewBox="0 0 25 24" fill="none" xmlns="http://www.w3.org/2000/svg"><g clip-path="url(#clip0_4355_16088)"><path d="M20.3247 10.3362C20.1985 10.1213 19.9678 9.98934 19.7186 9.98934H14.5737L15.2515 0.754543C15.2756 0.425527 15.0678 0.12398 14.7518 0.0294335C14.4357 -0.0653009 13.7855 -0.288481 13.625 -0.000246391L6.91695 12.9651C6.79568 13.1828 6.79878 13.4485 6.92506 13.6634C7.05134 13.8783 7.28201 14.0102 7.53124 14.0102H12.6762L11.625 23.9998H12.625C12.9436 24.0952 13.1548 23.9244 13.3139 23.6386L20.3329 11.0346C20.4541 10.8168 20.451 10.5511 20.3247 10.3362Z" fill="#C8A52A"></path><path d="M19.3247 10.3364C19.1985 10.1215 18.9678 9.98956 18.7186 9.98956H13.5737L14.2515 0.754767C14.2756 0.425751 14.0678 0.124204 13.7518 0.0296573C13.4357 -0.0650771 13.0965 0.0729229 12.936 0.361157L5.91695 12.9653C5.79568 13.1831 5.79878 13.4487 5.92506 13.6636C6.05134 13.8785 6.28201 14.0105 6.53124 14.0105H11.6762L10.9983 23.2453C10.9742 23.5743 11.182 23.8758 11.4981 23.9704C11.8167 24.0658 12.1548 23.9246 12.3139 23.6389L19.3329 11.0348C19.4541 10.817 19.451 10.5513 19.3247 10.3364Z" fill="#F2C31C"></path></g><defs><clipPath id="clip0_4355_16088"><rect width="24" height="24" fill="white" transform="translate(0.625)"></rect></clipPath></defs></svg>