<svg width="25" height="24" viewBox="0 0 25 24" fill="none" xmlns="http://www.w3.org/2000/svg"><g clip-path="url(#clip0_4355_17182)"><path fill-rule="evenodd" clip-rule="evenodd" d="M12.1251 3.44482C11.8537 3.44482 11.5823 3.44929 11.3754 3.45819C7.2762 3.6346 3.36945 5.25275 0.34614 8.02658C0.0409477 8.30659 0.0419856 8.78279 0.334879 9.07568L1.73847 10.4793C2.03137 10.7722 2.50495 10.7704 2.81312 10.4937C5.17879 8.36971 8.20079 7.11796 11.3755 6.94708C11.7891 6.92482 12.4612 6.92482 12.8748 6.94708C16.0495 7.11796 19.0716 8.36971 21.4372 10.4937C21.7454 10.7704 22.219 10.7722 22.5119 10.4793L23.9154 9.07568C24.2083 8.78279 24.2094 8.30659 23.9042 8.02658C20.8809 5.25275 16.9742 3.63459 12.8749 3.45819C12.668 3.44929 12.3966 3.44482 12.1251 3.44482ZM12.0831 10.4116L11.3339 10.4416C9.09872 10.6112 6.9762 11.4953 5.28166 12.9627C4.9686 13.2338 4.97027 13.7111 5.26316 14.004L6.66667 15.4076C6.95956 15.7005 7.43228 15.6967 7.75477 15.437C8.79066 14.603 10.0444 14.0826 11.3663 13.9378L12.1251 13.8964C14.1994 14.0799 15.4569 14.6008 16.4955 15.437C16.818 15.6967 17.2907 15.7005 17.5836 15.4076L18.9872 14.004C19.2801 13.7111 19.2817 13.2338 18.9686 12.9627C17.2632 11.4859 15.1247 10.6002 12.8745 10.4385C12.4614 10.4089 12.1063 10.4116 12.0831 10.4116ZM12.1251 17.3954C11.854 17.3954 11.5828 17.4175 11.3809 17.4616C10.9771 17.5499 10.5921 17.7094 10.2442 17.9325C9.89616 18.1556 9.89855 18.6394 10.1914 18.9323L11.5949 20.3357C11.7355 20.4763 11.9263 20.5553 12.1252 20.5553C12.3241 20.5553 12.5148 20.4763 12.6555 20.3357L14.0589 18.9323C14.3518 18.6394 14.3542 18.1556 14.0062 17.9325C13.6582 17.7094 13.2732 17.5499 12.8694 17.4616C12.6674 17.4175 12.3963 17.3954 12.1251 17.3954Z" fill="#1E90FF"></path><path fill-rule="evenodd" clip-rule="evenodd" d="M12.134 3.44482V6.93042C12.4023 6.93056 12.6702 6.93599 12.8746 6.94699C16.0493 7.11786 19.0714 8.36962 21.4371 10.4937C21.7453 10.7703 22.2189 10.7721 22.5118 10.4792L23.9153 9.07559C24.2082 8.7827 24.2093 8.3065 23.9041 8.02649C20.8808 5.25266 16.974 3.6345 12.8748 3.4581C12.6703 3.4493 12.4024 3.44492 12.134 3.44482ZM0.133981 8.39334C0.110813 8.49681 0.111064 8.60452 0.133981 8.70874V8.39334ZM12.134 10.4115V13.8971C14.2028 14.0814 15.4582 14.602 16.4954 15.437C16.8179 15.6966 17.2906 15.7004 17.5835 15.4075L18.9871 14.0039C19.28 13.711 19.2815 13.2337 18.9685 12.9626C17.2631 11.4858 15.1246 10.6001 12.8744 10.4384C12.5312 10.4138 12.2401 10.4116 12.134 10.4115ZM12.134 17.3955V20.5552C12.3298 20.5529 12.5169 20.474 12.6554 20.3356L14.0588 18.9322C14.3517 18.6393 14.3541 18.1556 14.0061 17.9324C13.6581 17.7093 13.273 17.5498 12.8692 17.4615C12.6695 17.4179 12.4021 17.396 12.134 17.3955Z" fill="#0584FF"></path></g><defs><clipPath id="clip0_4355_17182"><rect width="24" height="24" fill="white" transform="translate(0.125)"></rect></clipPath></defs></svg>