<svg width="24" height="24" viewBox="0 0 24 24" fill="none" xmlns="http://www.w3.org/2000/svg"><path d="M4.12146 3.3103H5.77663V7.03444H4.12146V3.3103Z" fill="#95A5A5"></path><path d="M9.91455 3.3103H11.5697V7.03444H9.91455V3.3103Z" fill="#95A5A5"></path><path d="M6.19052 1.65527V3.72424C6.19052 3.95277 6.00526 4.13803 5.77673 4.13803H4.12156C3.89303 4.13803 3.70776 3.95277 3.70776 3.72424V1.65527H6.19052Z" fill="#35495E"></path><path d="M11.9836 1.65527V3.72424C11.9836 3.95277 11.7984 4.13803 11.5698 4.13803H9.91465C9.68612 4.13803 9.50085 3.95277 9.50085 3.72424V1.65527H11.9836Z" fill="#35495E"></path><path d="M13.2249 1.03448C13.2258 1.30911 13.1171 1.57275 12.9229 1.76695C12.7287 1.96114 12.4651 2.06985 12.1904 2.06897H3.50079C2.92946 2.06897 2.46631 1.60581 2.46631 1.03448C2.46631 0.463154 2.92946 0 3.50079 0H12.1904C12.7618 0 13.2249 0.463154 13.2249 1.03448Z" fill="#3F5C6C"></path><path d="M15.5918 10.3861C15.9974 8.49506 15.2732 8.8261 15.2732 7.78334C15.2732 7.71713 15.2774 7.65506 15.2815 7.59713C15.3224 7.24544 15.2118 6.89295 14.9773 6.62766C14.7428 6.36238 14.4066 6.20935 14.0525 6.20679H1.63874C1.28427 6.2091 0.947475 6.36189 0.712268 6.62709C0.477061 6.89229 0.365593 7.24493 0.405639 7.59713C0.409777 7.65506 0.413915 7.71713 0.413915 7.78334C0.413915 8.56955 0.00012207 8.56955 0.00012207 9.35575C0.00012207 10.142 0.413915 10.142 0.413915 10.9282C0.413915 11.7144 0.00012207 11.7144 0.00012207 12.5006C0.00012207 13.2868 0.413915 13.2868 0.413915 14.073C0.413915 14.8592 0.00012207 14.8592 0.00012207 15.6454C0.00012207 16.4316 0.413915 16.4316 0.413915 17.2178C0.413915 18.004 0.00012207 18.004 0.00012207 18.7902C0.00012207 19.5764 0.413915 19.5764 0.413915 20.3585C0.413915 20.4247 0.409777 20.4826 0.405639 20.5364C0.364867 20.8892 0.47595 21.2427 0.711187 21.5087C0.946424 21.7747 1.28364 21.9282 1.63874 21.9309H4.13805L16.5518 16.5516L15.5918 10.3861Z" fill="#2980BA"></path><path d="M13.6387 11.1723V16.5516H11.9835V11.1723C11.9835 10.7152 12.354 10.3447 12.8111 10.3447C13.2668 10.3481 13.6353 10.7167 13.6387 11.1723Z" fill="#3B97D3"></path><path d="M10.3284 11.1723V16.5516H8.67322V11.1723C8.67322 10.7152 9.04374 10.3447 9.5008 10.3447C9.95646 10.3481 10.325 10.7167 10.3284 11.1723Z" fill="#3B97D3"></path><path d="M7.01809 11.1723V16.5516H5.36292V11.1723C5.36292 10.7152 5.73344 10.3447 6.1905 10.3447C6.64616 10.3481 7.01471 10.7167 7.01809 11.1723Z" fill="#3B97D3"></path><path d="M3.7077 11.1724V19.0344C3.70634 19.4909 3.33661 19.8607 2.88011 19.862C2.42446 19.8587 2.05591 19.4901 2.05253 19.0344V11.2179C2.0441 10.7782 2.36916 10.4031 2.80563 10.3489C3.0367 10.3293 3.26546 10.4071 3.43673 10.5634C3.608 10.7197 3.70622 10.9405 3.7077 11.1724Z" fill="#3B97D3"></path><path d="M11.9819 9.51723C11.7534 9.51723 11.5681 9.33197 11.5681 9.10344V8.27585C11.5681 8.04732 11.7534 7.86206 11.9819 7.86206C12.2104 7.86206 12.3957 8.04732 12.3957 8.27585V9.10344C12.3957 9.33197 12.2104 9.51723 11.9819 9.51723Z" fill="#35495E"></path><path d="M12.8096 8.68965H2.87851C2.64998 8.68965 2.46472 8.50439 2.46472 8.27585C2.46472 8.04732 2.64998 7.86206 2.87851 7.86206H12.8096C13.0381 7.86206 13.2233 8.04732 13.2233 8.27585C13.2233 8.50439 13.0381 8.68965 12.8096 8.68965Z" fill="#95A5A5"></path><path d="M21.9312 10.3448C21.7027 10.3448 21.5174 10.1595 21.5174 9.931V9.10341C21.5174 8.64635 21.1469 8.27583 20.6898 8.27583H18.6209C18.1638 8.27583 17.7933 8.64635 17.7933 9.10341V9.931C17.7933 10.1595 17.608 10.3448 17.3795 10.3448C17.151 10.3448 16.9657 10.1595 16.9657 9.931V9.10341C16.9657 8.18929 17.7067 7.44824 18.6209 7.44824H20.6898C21.604 7.44824 22.345 8.18929 22.345 9.10341V9.931C22.345 10.1595 22.1597 10.3448 21.9312 10.3448Z" fill="#E57E25"></path><path d="M5.37948 24.0001H2.46638C2.00932 24.0001 1.63879 23.6296 1.63879 23.1725V21.9312H4.5519V23.1725C4.55326 23.629 4.92299 23.9988 5.37948 24.0001Z" fill="#3F5C6C"></path><path d="M24.0001 11.1725V15.3105C24.0001 15.9961 23.4443 16.5518 22.7587 16.5518H16.5518C15.8662 16.5518 15.3104 15.9961 15.3104 15.3105V11.1725C15.3113 10.8859 15.4106 10.6084 15.5918 10.3863C15.827 10.0979 16.1796 9.93071 16.5518 9.93115H22.7587C23.4443 9.93115 24.0001 10.4869 24.0001 11.1725Z" fill="#F29C1F"></path><path d="M21.5173 13.2413C21.2888 13.2413 21.1035 13.0561 21.1035 12.8275V11.5862C21.1035 11.3576 21.2888 11.1724 21.5173 11.1724C21.7458 11.1724 21.9311 11.3576 21.9311 11.5862V12.8275C21.9311 13.0561 21.7458 13.2413 21.5173 13.2413Z" fill="#802F34"></path><path d="M22.345 11.9999H16.9657C16.7371 11.9999 16.5519 11.8147 16.5519 11.5862C16.5519 11.3576 16.7371 11.1724 16.9657 11.1724H22.345C22.5735 11.1724 22.7588 11.3576 22.7588 11.5862C22.7588 11.8147 22.5735 11.9999 22.345 11.9999Z" fill="#C03A2B"></path><path d="M23.1725 16.5518H4.96565C4.50915 16.5531 4.13942 16.9228 4.13806 17.3793V23.1724C4.13942 23.6289 4.50915 23.9987 4.96565 24H23.1725C23.629 23.9987 23.9988 23.6289 24.0001 23.1724V17.3793C23.9988 16.9228 23.629 16.5531 23.1725 16.5518Z" fill="#A56A43"></path><path d="M24.0001 20.2759V21.5173C22.6289 21.5173 21.5174 22.6288 21.5174 24H6.62082C6.62082 22.6288 5.50925 21.5173 4.13806 21.5173V20.2759H7.03461V21.1035C7.03461 21.332 7.21987 21.5173 7.44841 21.5173H8.27599C8.50452 21.5173 8.68979 21.332 8.68979 21.1035V20.2759H10.345C10.345 21.19 11.086 21.9311 12.0001 21.9311H16.1381C17.0522 21.9311 17.7932 21.19 17.7932 20.2759H19.4484V21.1035C19.4484 21.332 19.6337 21.5173 19.8622 21.5173H20.6898C20.9183 21.5173 21.1036 21.332 21.1036 21.1035V20.2759H24.0001Z" fill="#805333"></path><path d="M6.62082 16.5518C6.62082 17.9229 5.50925 19.0345 4.13806 19.0345V17.3793C4.13942 16.9228 4.50915 16.5531 4.96565 16.5518H6.62082Z" fill="#F3D55B"></path><path d="M6.62082 24.0001H4.96565C4.50915 23.9987 4.13942 23.629 4.13806 23.1725V21.5173C5.50925 21.5173 6.62082 22.6289 6.62082 24.0001Z" fill="#F3D55B"></path><path d="M24.0001 17.3793V19.0345C22.6289 19.0345 21.5173 17.9229 21.5173 16.5518H23.1725C23.629 16.5531 23.9987 16.9228 24.0001 17.3793Z" fill="#F3D55B"></path><path d="M24.0001 21.5173V23.1725C23.9987 23.629 23.629 23.9987 23.1725 24.0001H21.5173C21.5173 23.3416 21.7789 22.7101 22.2445 22.2445C22.7101 21.7789 23.3416 21.5173 24.0001 21.5173Z" fill="#F3D55B"></path><path d="M17.7932 19.4482V20.2758C17.7932 21.1899 17.0522 21.9309 16.1381 21.9309H12.0001C11.086 21.9309 10.345 21.1899 10.345 20.2758V19.4482C10.345 18.9911 10.7155 18.6206 11.1726 18.6206C11.6296 18.6206 12.0001 18.9911 12.0001 19.4482V20.2758H16.1381V19.4482C16.1381 18.9911 16.5086 18.6206 16.9657 18.6206C17.4227 18.6206 17.7932 18.9911 17.7932 19.4482Z" fill="#F3D55B"></path><path d="M8.27593 19.0344H7.44834C7.21981 19.0344 7.03455 19.2197 7.03455 19.4482V21.1034C7.03455 21.3319 7.21981 21.5172 7.44834 21.5172H8.27593C8.50446 21.5172 8.68972 21.3319 8.68972 21.1034V19.4482C8.68972 19.2197 8.50446 19.0344 8.27593 19.0344Z" fill="#BDC3C7"></path><path d="M20.6897 19.0344H19.8622C19.6336 19.0344 19.4484 19.2197 19.4484 19.4482V21.1034C19.4484 21.3319 19.6336 21.5172 19.8622 21.5172H20.6897C20.9183 21.5172 21.1035 21.3319 21.1035 21.1034V19.4482C21.1035 19.2197 20.9183 19.0344 20.6897 19.0344Z" fill="#BDC3C7"></path></svg>