<svg width="25" height="24" viewBox="0 0 25 24" fill="none" xmlns="http://www.w3.org/2000/svg"><g clip-path="url(#clip0_4355_17382)"><path d="M16.2934 5.2658C15.0651 3.69961 13.7962 2.08087 12.7721 0.343495C12.5019 -0.114498 11.748 -0.114498 11.4793 0.343495C10.4536 2.08087 9.18478 3.69961 7.95645 5.2658C5.46677 8.44173 3.11523 11.442 3.11523 14.9903C3.11523 19.9591 7.15609 24 12.1249 24C17.0938 24 21.1347 19.9591 21.1347 14.9903C21.1347 11.442 18.7831 8.44173 16.2934 5.2658Z" fill="#2B8CD9"></path><path d="M15.125 8C13.8967 6.43381 13.7962 2.08087 12.7721 0.343495C12.5019 -0.114498 11.748 -0.114498 11.4793 0.343495C10.4536 2.08087 9.18478 3.69961 7.95645 5.2658C5.46677 8.44173 3.11523 11.442 3.11523 14.9903C3.11523 19.9591 7.15609 24 12.1249 24C17.0938 24 17.625 17 17.625 17C17.625 13.4517 17.6147 11.1759 15.125 8Z" fill="#39A3F8"></path></g><defs><clipPath id="clip0_4355_17382"><rect width="24" height="24" fill="white" transform="translate(0.125)"></rect></clipPath></defs></svg>